<?xml version="1.0" encoding="UTF-8" standalone="no"?>
<!-- Created with Inkscape (http://www.inkscape.org/) -->

<svg
   version="1.1"
   id="svg1"
   width="50.911999"
   height="38.175999"
   viewBox="0 0 50.911999 38.175999"
   xmlns="http://www.w3.org/2000/svg"
   xmlns:svg="http://www.w3.org/2000/svg">
  <defs
     id="defs1" />
  <g
     id="layer-MC1"
     transform="translate(-123.60893,-5.7209335)">
    <path
       id="path25"
       d="m 0,0 -2.988,-1.517 -0.004,0.006 c -1.891,-1.113 -3.769,-2.635 -3.755,-4.394 0.023,-2.847 1.406,-2.498 3.922,-4.295 5.227,-3.734 0.361,-7.049 0.361,-7.049 l -5.898,-4.91 h 19.471 z m -6.77,-10.725 c -5.807,3.491 0.537,7.921 3.509,9.655 l -4.582,7.543 -19.232,-28.632 h 13.417 c 2.57,2.048 8.375,6.677 9.315,7.455 1.214,1.003 -0.349,2.73 -2.427,3.979"
       style="fill:#6f2016;fill-opacity:1;fill-rule:nonzero;stroke:none"
       transform="matrix(1.3333333,0,0,-1.3333333,159.70893,14.3516)" />
  </g>
</svg>
